<?xml version="1.0" encoding="UTF-8"?>
<svg width="600px" height="50px" viewBox="0 0 600 50" version="1.1" xmlns="http://www.w3.org/2000/svg">
    <title>Asian Divider</title>
    <g stroke="none" stroke-width="1" fill="none" fill-rule="evenodd">
        <!-- Main line -->
        <line x1="50" y1="25" x2="550" y2="25" stroke="#B22222" stroke-width="3" />
        
        <!-- Chinese hanzi-like symbol - "long" (dragon) -->
        <path d="M210,12 C215,10 225,10 230,15 C235,20 230,25 225,30 C220,35 215,37 210,38 M225,20 L240,20 M240,10 L240,35" stroke="#000000" stroke-width="2" />
        
        <!-- Chinese hanzi-like symbol - "feng" (phoenix) -->
        <path d="M270,15 L290,15 M280,10 L280,40 M270,25 L290,25 M265,35 L295,35" stroke="#000000" stroke-width="2" />
        
        <!-- Japanese-inspired kanji-like symbol -->
        <path d="M320,10 L320,40 M310,15 L330,15 M310,35 L330,35" stroke="#000000" stroke-width="2" />
        
        <!-- Japanese-inspired kanji-like symbol -->
        <path d="M350,10 L370,40 M370,10 L350,40 M350,25 L370,25" stroke="#000000" stroke-width="2" />
        
        <!-- Decorative elements - Chinese coin -->
        <circle cx="140" cy="25" r="12" stroke="#DAA520" stroke-width="2" />
        <circle cx="140" cy="25" r="5" fill="#DAA520" />
        <rect x="131" y="25" width="18" height="3" fill="#FFF5EE" transform="rotate(0 140 25)" />
        <rect x="140" y="16" width="3" height="18" fill="#FFF5EE" transform="rotate(0 140 25)" />
        
        <!-- Decorative elements - Chinese coin -->
        <circle cx="460" cy="25" r="12" stroke="#DAA520" stroke-width="2" />
        <circle cx="460" cy="25" r="5" fill="#DAA520" />
        <rect x="451" y="25" width="18" height="3" fill="#FFF5EE" transform="rotate(0 460 25)" />
        <rect x="460" y="16" width="3" height="18" fill="#FFF5EE" transform="rotate(0 460 25)" />
        
        <!-- Classical cloud elements -->
        <path d="M90,15 C95,10 105,10 110,15 C115,20 110,25 105,25 C110,30 105,35 100,35 C95,40 85,40 80,35 C75,30 80,25 85,25 C80,20 85,15 90,15 Z" fill="#8B0000" opacity="0.7" />
        
        <path d="M510,15 C515,10 525,10 530,15 C535,20 530,25 525,25 C530,30 525,35 520,35 C515,40 505,40 500,35 C495,30 500,25 505,25 C500,20 505,15 510,15 Z" fill="#8B0000" opacity="0.7" />
    </g>
</svg> 