<?xml version="1.0" encoding="UTF-8"?>
<svg width="600px" height="50px" viewBox="0 0 600 50" version="1.1" xmlns="http://www.w3.org/2000/svg">
    <title>African Divider</title>
    <g stroke="none" stroke-width="1" fill="none" fill-rule="evenodd">
        <!-- Main line -->
        <line x1="50" y1="25" x2="550" y2="25" stroke="#A0522D" stroke-width="3" />
        
        <!-- Adinkra symbols -->
        <!-- Sankofa (bird) - symbol of learning from the past -->
        <path d="M200,25 C205,20 210,15 210,10 C210,5 205,5 200,10 C195,15 195,25 200,25 L200,35 C195,40 190,40 185,35 C180,30 180,20 185,15" stroke="#CD853F" stroke-width="2.5" fill="#A0522D" />
        
        <!-- Adinkrahene (concentric circles) - symbol of greatness -->
        <circle cx="250" cy="25" r="12" stroke="#CD853F" stroke-width="2" />
        <circle cx="250" cy="25" r="8" stroke="#CD853F" stroke-width="2" />
        <circle cx="250" cy="25" r="4" fill="#CD853F" />
        
        <!-- Gye Nyame (supremacy of God) -->
        <path d="M300,15 C305,10 315,10 320,15 C325,20 325,30 320,35 C315,40 305,40 300,35 L310,25 L300,15" stroke="#CD853F" stroke-width="2.5" fill="#A0522D" />
        
        <!-- Dwennimmen (ram's horns) - symbol of strength -->
        <path d="M350,25 C355,20 360,20 365,25 C370,30 370,40 365,45 M350,25 C345,20 340,20 335,25 C330,30 330,40 335,45" stroke="#CD853F" stroke-width="2.5" fill="none" />
        
        <!-- Decorative elements -->
        <circle cx="120" cy="25" r="8" fill="#D2691E" />
        <circle cx="120" cy="25" r="4" fill="#800000" />
        
        <circle cx="480" cy="25" r="8" fill="#D2691E" />
        <circle cx="480" cy="25" r="4" fill="#800000" />
        
        <!-- Kente-inspired elements -->
        <rect x="80" y="20" width="10" height="10" fill="#FF8C00" />
        <rect x="150" y="20" width="10" height="10" fill="#FF8C00" />
        <rect x="400" y="20" width="10" height="10" fill="#FF8C00" />
        <rect x="440" y="20" width="10" height="10" fill="#FF8C00" />
        <rect x="510" y="20" width="10" height="10" fill="#FF8C00" />
    </g>
</svg> 